<svg id="visual" viewBox="0 0 1124 150" width="1124" height="150" xmlns="http://www.w3.org/2000/svg" xmlns:xlink="http://www.w3.org/1999/xlink" version="1.1"><rect x="0" y="0" width="1124" height="150" fill="#001220"></rect><path d="M0 57L26.8 54.2C53.7 51.3 107.3 45.7 160.8 42.5C214.3 39.3 267.7 38.7 321.2 41.3C374.7 44 428.3 50 481.8 54.8C535.3 59.7 588.7 63.3 642.2 66.3C695.7 69.3 749.3 71.7 802.8 70C856.3 68.3 909.7 62.7 963.2 60.3C1016.7 58 1070.3 59 1097.2 59.5L1124 60L1124 151L1097.2 151C1070.3 151 1016.7 151 963.2 151C909.7 151 856.3 151 802.8 151C749.3 151 695.7 151 642.2 151C588.7 151 535.3 151 481.8 151C428.3 151 374.7 151 321.2 151C267.7 151 214.3 151 160.8 151C107.3 151 53.7 151 26.8 151L0 151Z" fill="#fa7268"></path><path d="M0 78L26.8 77C53.7 76 107.3 74 160.8 72.5C214.3 71 267.7 70 321.2 71C374.7 72 428.3 75 481.8 77.3C535.3 79.7 588.7 81.3 642.2 82.3C695.7 83.3 749.3 83.7 802.8 83.8C856.3 84 909.7 84 963.2 78.2C1016.7 72.3 1070.3 60.7 1097.2 54.8L1124 49L1124 151L1097.2 151C1070.3 151 1016.7 151 963.2 151C909.7 151 856.3 151 802.8 151C749.3 151 695.7 151 642.2 151C588.7 151 535.3 151 481.8 151C428.3 151 374.7 151 321.2 151C267.7 151 214.3 151 160.8 151C107.3 151 53.7 151 26.8 151L0 151Z" fill="#fc6c6d"></path><path d="M0 88L26.8 86.8C53.7 85.7 107.3 83.3 160.8 80.2C214.3 77 267.7 73 321.2 71.5C374.7 70 428.3 71 481.8 69.8C535.3 68.7 588.7 65.3 642.2 65C695.7 64.7 749.3 67.3 802.8 69.5C856.3 71.7 909.7 73.3 963.2 73.5C1016.7 73.7 1070.3 72.3 1097.2 71.7L1124 71L1124 151L1097.2 151C1070.3 151 1016.7 151 963.2 151C909.7 151 856.3 151 802.8 151C749.3 151 695.7 151 642.2 151C588.7 151 535.3 151 481.8 151C428.3 151 374.7 151 321.2 151C267.7 151 214.3 151 160.8 151C107.3 151 53.7 151 26.8 151L0 151Z" fill="#fe6673"></path><path d="M0 82L26.8 81.8C53.7 81.7 107.3 81.3 160.8 82.2C214.3 83 267.7 85 321.2 86.5C374.7 88 428.3 89 481.8 87.7C535.3 86.3 588.7 82.7 642.2 81.3C695.7 80 749.3 81 802.8 83.7C856.3 86.3 909.7 90.7 963.2 92C1016.7 93.3 1070.3 91.7 1097.2 90.8L1124 90L1124 151L1097.2 151C1070.3 151 1016.7 151 963.2 151C909.7 151 856.3 151 802.8 151C749.3 151 695.7 151 642.2 151C588.7 151 535.3 151 481.8 151C428.3 151 374.7 151 321.2 151C267.7 151 214.3 151 160.8 151C107.3 151 53.7 151 26.8 151L0 151Z" fill="#ff617a"></path><path d="M0 110L26.8 110.5C53.7 111 107.3 112 160.8 109C214.3 106 267.7 99 321.2 96.8C374.7 94.7 428.3 97.3 481.8 99.2C535.3 101 588.7 102 642.2 101.3C695.7 100.7 749.3 98.3 802.8 100C856.3 101.7 909.7 107.3 963.2 109.5C1016.7 111.7 1070.3 110.3 1097.2 109.7L1124 109L1124 151L1097.2 151C1070.3 151 1016.7 151 963.2 151C909.7 151 856.3 151 802.8 151C749.3 151 695.7 151 642.2 151C588.7 151 535.3 151 481.8 151C428.3 151 374.7 151 321.2 151C267.7 151 214.3 151 160.8 151C107.3 151 53.7 151 26.8 151L0 151Z" fill="#ff5b80"></path><path d="M0 101L26.8 102.3C53.7 103.7 107.3 106.3 160.8 107.7C214.3 109 267.7 109 321.2 110.2C374.7 111.3 428.3 113.7 481.8 114C535.3 114.3 588.7 112.7 642.2 112.3C695.7 112 749.3 113 802.8 114.3C856.3 115.7 909.7 117.3 963.2 116.3C1016.7 115.3 1070.3 111.7 1097.2 109.8L1124 108L1124 151L1097.2 151C1070.3 151 1016.7 151 963.2 151C909.7 151 856.3 151 802.8 151C749.3 151 695.7 151 642.2 151C588.7 151 535.3 151 481.8 151C428.3 151 374.7 151 321.2 151C267.7 151 214.3 151 160.8 151C107.3 151 53.7 151 26.8 151L0 151Z" fill="#ff5688"></path><path d="M0 118L26.8 117.5C53.7 117 107.3 116 160.8 117.7C214.3 119.3 267.7 123.7 321.2 125.8C374.7 128 428.3 128 481.8 128.2C535.3 128.3 588.7 128.7 642.2 128C695.7 127.3 749.3 125.7 802.8 123.2C856.3 120.7 909.7 117.3 963.2 118.5C1016.7 119.7 1070.3 125.3 1097.2 128.2L1124 131L1124 151L1097.2 151C1070.3 151 1016.7 151 963.2 151C909.7 151 856.3 151 802.8 151C749.3 151 695.7 151 642.2 151C588.7 151 535.3 151 481.8 151C428.3 151 374.7 151 321.2 151C267.7 151 214.3 151 160.8 151C107.3 151 53.7 151 26.8 151L0 151Z" fill="#ff5290"></path><path d="M0 134L26.8 133.3C53.7 132.7 107.3 131.3 160.8 132C214.3 132.7 267.7 135.3 321.2 136.7C374.7 138 428.3 138 481.8 137.2C535.3 136.3 588.7 134.7 642.2 134C695.7 133.3 749.3 133.7 802.8 135C856.3 136.3 909.7 138.7 963.2 137.8C1016.7 137 1070.3 133 1097.2 131L1124 129L1124 151L1097.2 151C1070.3 151 1016.7 151 963.2 151C909.7 151 856.3 151 802.8 151C749.3 151 695.7 151 642.2 151C588.7 151 535.3 151 481.8 151C428.3 151 374.7 151 321.2 151C267.7 151 214.3 151 160.8 151C107.3 151 53.7 151 26.8 151L0 151Z" fill="#ff4e98"></path></svg>